<svg width="450" height="113" viewBox="0 0 450 113" fill="none" xmlns="http://www.w3.org/2000/svg">
<path d="M0.000141515 86.8125V0.00166901H9.24493V21.4225H52.9886C55.4689 21.4225 57.7237 22.0614 59.7531 23.3391C61.8576 24.5417 63.5111 26.1952 64.7137 28.2997C65.9914 30.3291 66.6303 32.5839 66.6303 35.0642V73.1708C66.6303 75.6511 65.9914 77.9435 64.7137 80.048C63.5111 82.0774 61.8576 83.7309 59.7531 85.0086C57.7237 86.2112 55.4689 86.8125 52.9886 86.8125H0.000141515ZM13.7546 77.5677H52.9886C54.1911 77.5677 55.2058 77.1543 56.0326 76.3276C56.9345 75.4256 57.3855 74.3734 57.3855 73.1708V35.0642C57.3855 33.8617 56.9345 32.847 56.0326 32.0202C55.2058 31.1183 54.1911 30.6673 52.9886 30.6673H13.7546C12.552 30.6673 11.4998 31.1183 10.5978 32.0202C9.6959 32.847 9.24493 33.8617 9.24493 35.0642V73.1708C9.24493 74.3734 9.6959 75.4256 10.5978 76.3276C11.4998 77.1543 12.552 77.5677 13.7546 77.5677ZM88.5012 86.8125C86.0209 86.8125 83.7285 86.2112 81.624 85.0086C79.5946 83.7309 77.9411 82.0774 76.6634 80.048C75.4608 77.9435 74.8595 75.6511 74.8595 73.1708V35.0642C74.8595 32.5839 75.4608 30.3291 76.6634 28.2997C77.9411 26.1952 79.5946 24.5417 81.624 23.3391C83.7285 22.0614 86.0209 21.4225 88.5012 21.4225H127.735C130.291 21.4225 132.583 22.0614 134.612 23.3391C136.717 24.5417 138.37 26.1952 139.573 28.2997C140.851 30.3291 141.49 32.5839 141.49 35.0642V58.7399H84.1043V73.1708C84.1043 74.3734 84.5177 75.4256 85.3444 76.3276C86.2464 77.1543 87.2986 77.5677 88.5012 77.5677H141.49V86.8125H88.5012ZM84.1043 49.4951H132.132V35.0642C132.132 33.8617 131.681 32.847 130.779 32.0202C129.952 31.1183 128.938 30.6673 127.735 30.6673H88.5012C87.2986 30.6673 86.2464 31.1183 85.3444 32.0202C84.5177 32.847 84.1043 33.8617 84.1043 35.0642V49.4951ZM163.856 112.63V103.273H204.668C205.871 103.273 206.885 102.822 207.712 101.92C208.614 101.093 209.065 100.078 209.065 98.8758V86.8125H165.434C162.954 86.8125 160.661 86.2112 158.557 85.0086C156.527 83.7309 154.874 82.0774 153.596 80.048C152.394 77.9435 151.792 75.6511 151.792 73.1708V35.0642C151.792 32.5839 152.394 30.3291 153.596 28.2997C154.874 26.1952 156.527 24.5417 158.557 23.3391C160.661 22.0614 162.954 21.4225 165.434 21.4225H204.668C207.223 21.4225 209.516 22.0614 211.545 23.3391C213.65 24.5417 215.303 26.1952 216.506 28.2997C217.708 30.3291 218.31 32.5839 218.31 35.0642V98.8758C218.31 101.431 217.708 103.724 216.506 105.753C215.303 107.858 213.65 109.511 211.545 110.714C209.516 111.991 207.223 112.63 204.668 112.63H163.856ZM165.434 77.5677H204.668C205.871 77.5677 206.885 77.1543 207.712 76.3276C208.614 75.4256 209.065 74.3734 209.065 73.1708V35.0642C209.065 33.8617 208.614 32.847 207.712 32.0202C206.885 31.1183 205.871 30.6673 204.668 30.6673H165.434C164.231 30.6673 163.179 31.1183 162.277 32.0202C161.45 32.847 161.037 33.8617 161.037 35.0642V73.1708C161.037 74.3734 161.45 75.4256 162.277 76.3276C163.179 77.1543 164.231 77.5677 165.434 77.5677ZM241.319 86.8125C238.838 86.8125 236.546 86.2112 234.441 85.0086C232.412 83.7309 230.758 82.0774 229.481 80.048C228.278 77.9435 227.677 75.6511 227.677 73.1708V35.0642C227.677 32.5839 228.278 30.3291 229.481 28.2997C230.758 26.1952 232.412 24.5417 234.441 23.3391C236.546 22.0614 238.838 21.4225 241.319 21.4225H280.553C283.108 21.4225 285.4 22.0614 287.43 23.3391C289.534 24.5417 291.188 26.1952 292.39 28.2997C293.668 30.3291 294.307 32.5839 294.307 35.0642V73.1708C294.307 75.6511 293.668 77.9435 292.39 80.048C291.188 82.0774 289.534 83.7309 287.43 85.0086C285.4 86.2112 283.108 86.8125 280.553 86.8125H241.319ZM241.319 77.5677H280.553C281.755 77.5677 282.77 77.1543 283.597 76.3276C284.498 75.4256 284.949 74.3734 284.949 73.1708V35.0642C284.949 33.8617 284.498 32.847 283.597 32.0202C282.77 31.1183 281.755 30.6673 280.553 30.6673H241.319C240.116 30.6673 239.064 31.1183 238.162 32.0202C237.335 32.847 236.922 33.8617 236.922 35.0642V73.1708C236.922 74.3734 237.335 75.4256 238.162 76.3276C239.064 77.1543 240.116 77.5677 241.319 77.5677ZM304.424 86.8125V21.4225H357.412C359.892 21.4225 362.147 22.0614 364.177 23.3391C366.281 24.5417 367.935 26.1952 369.137 28.2997C370.415 30.3291 371.054 32.5839 371.054 35.0642V86.8125H361.809V35.0642C361.809 33.8617 361.358 32.847 360.456 32.0202C359.629 31.1183 358.615 30.6673 357.412 30.6673H318.178C316.976 30.6673 315.923 31.1183 315.021 32.0202C314.12 32.847 313.669 33.8617 313.669 35.0642V86.8125H304.424ZM396.228 86.8125C393.747 86.8125 391.455 86.2112 389.351 85.0086C387.321 83.7309 385.668 82.0774 384.39 80.048C383.187 77.9435 382.586 75.6511 382.586 73.1708V35.0642C382.586 32.5839 383.187 30.3291 384.39 28.2997C385.668 26.1952 387.321 24.5417 389.351 23.3391C391.455 22.0614 393.747 21.4225 396.228 21.4225H435.462C438.017 21.4225 440.31 22.0614 442.339 23.3391C444.443 24.5417 446.097 26.1952 447.3 28.2997C448.577 30.3291 449.216 32.5839 449.216 35.0642V58.7399H391.831V73.1708C391.831 74.3734 392.244 75.4256 393.071 76.3276C393.973 77.1543 395.025 77.5677 396.228 77.5677H449.216V86.8125H396.228ZM391.831 49.4951H439.859V35.0642C439.859 33.8617 439.408 32.847 438.506 32.0202C437.679 31.1183 436.664 30.6673 435.462 30.6673H396.228C395.025 30.6673 393.973 31.1183 393.071 32.0202C392.244 32.847 391.831 33.8617 391.831 35.0642V49.4951Z" fill="#00A47B"/>
</svg>
