<svg width="647" height="113" viewBox="0 0 647 113" fill="none" xmlns="http://www.w3.org/2000/svg">
<path d="M25.7052 86.8125L0.000145891 21.4225H9.92138L29.7639 70.1268L50.8465 21.4225H63.0226L85.4581 70.014L103.948 21.4225H113.982L89.2913 86.8125H81.2867L56.9345 32.8094L33.8225 86.8125H25.7052ZM132.591 86.8125C130.111 86.8125 127.818 86.2112 125.714 85.0086C123.684 83.7309 122.031 82.0774 120.753 80.048C119.551 77.9435 118.949 75.6511 118.949 73.1708V35.0642C118.949 32.5839 119.551 30.3291 120.753 28.2997C122.031 26.1952 123.684 24.5417 125.714 23.3391C127.818 22.0614 130.111 21.4225 132.591 21.4225H171.825C174.38 21.4225 176.673 22.0614 178.702 23.3391C180.807 24.5417 182.46 26.1952 183.663 28.2997C184.941 30.3291 185.579 32.5839 185.579 35.0642V58.7399H128.194V73.1708C128.194 74.3734 128.607 75.4256 129.434 76.3276C130.336 77.1543 131.388 77.5677 132.591 77.5677H185.579V86.8125H132.591ZM128.194 49.4951H176.222V35.0642C176.222 33.8617 175.771 32.847 174.869 32.0202C174.042 31.1183 173.028 30.6673 171.825 30.6673H132.591C131.388 30.6673 130.336 31.1183 129.434 32.0202C128.607 32.847 128.194 33.8617 128.194 35.0642V49.4951ZM197.348 86.8125V0.00166901H206.592V21.4225H250.336C252.816 21.4225 255.071 22.0614 257.101 23.3391C259.205 24.5417 260.859 26.1952 262.061 28.2997C263.339 30.3291 263.978 32.5839 263.978 35.0642V73.1708C263.978 75.6511 263.339 77.9435 262.061 80.048C260.859 82.0774 259.205 83.7309 257.101 85.0086C255.071 86.2112 252.816 86.8125 250.336 86.8125H197.348ZM211.102 77.5677H250.336C251.539 77.5677 252.553 77.1543 253.38 76.3276C254.282 75.4256 254.733 74.3734 254.733 73.1708V35.0642C254.733 33.8617 254.282 32.847 253.38 32.0202C252.553 31.1183 251.539 30.6673 250.336 30.6673H211.102C209.9 30.6673 208.847 31.1183 207.945 32.0202C207.043 32.847 206.592 33.8617 206.592 35.0642V73.1708C206.592 74.3734 207.043 75.4256 207.945 76.3276C208.847 77.1543 209.9 77.5677 211.102 77.5677ZM285.849 86.8125C283.368 86.8125 281.076 86.2112 278.972 85.0086C276.942 83.7309 275.289 82.0774 274.011 80.048C272.808 77.9435 272.207 75.6511 272.207 73.1708V35.0642C272.207 32.5839 272.808 30.3291 274.011 28.2997C275.289 26.1952 276.942 24.5417 278.972 23.3391C281.076 22.0614 283.368 21.4225 285.849 21.4225H325.083C327.638 21.4225 329.931 22.0614 331.96 23.3391C334.064 24.5417 335.718 26.1952 336.921 28.2997C338.198 30.3291 338.837 32.5839 338.837 35.0642V58.7399H281.452V73.1708C281.452 74.3734 281.865 75.4256 282.692 76.3276C283.594 77.1543 284.646 77.5677 285.849 77.5677H338.837V86.8125H285.849ZM281.452 49.4951H329.48V35.0642C329.48 33.8617 329.029 32.847 328.127 32.0202C327.3 31.1183 326.285 30.6673 325.083 30.6673H285.849C284.646 30.6673 283.594 31.1183 282.692 32.0202C281.865 32.847 281.452 33.8617 281.452 35.0642V49.4951ZM364.022 86.8125C361.541 86.8125 359.249 86.2112 357.144 85.0086C355.115 83.7309 353.462 82.0774 352.184 80.048C350.981 77.9435 350.38 75.6511 350.38 73.1708V49.4951H407.653V35.0642C407.653 33.8617 407.202 32.847 406.3 32.0202C405.473 31.1183 404.458 30.6673 403.256 30.6673H350.38V21.4225H403.256C405.811 21.4225 408.104 22.0614 410.133 23.3391C412.237 24.5417 413.891 26.1952 415.093 28.2997C416.371 30.3291 417.01 32.5839 417.01 35.0642V86.8125H364.022ZM364.022 77.5677H407.653V58.7399H359.625V73.1708C359.625 74.3734 360.038 75.4256 360.865 76.3276C361.767 77.1543 362.819 77.5677 364.022 77.5677ZM426.023 86.8125V74.1855L482.507 30.6673H426.023V21.4225H492.653V34.0496L436.17 77.5677H492.653V86.8125H426.023ZM502.542 86.8125V74.1855L559.025 30.6673H502.542V21.4225H569.172V34.0496L512.689 77.5677H569.172V86.8125H502.542ZM591.973 112.743V103.385H632.786C633.988 103.385 635.003 102.935 635.83 102.033C636.731 101.206 637.182 100.191 637.182 98.9886V86.8125H593.552C591.071 86.8125 588.779 86.2112 586.674 85.0086C584.645 83.7309 582.991 82.0774 581.714 80.048C580.511 77.9435 579.91 75.6511 579.91 73.1708V21.648H589.155V73.1708C589.155 74.3734 589.568 75.4256 590.395 76.3276C591.297 77.1543 592.349 77.5677 593.552 77.5677H632.786C633.988 77.5677 635.003 77.1543 635.83 76.3276C636.731 75.4256 637.182 74.3734 637.182 73.1708V21.648H646.427V98.9886C646.427 101.544 645.826 103.836 644.623 105.866C643.421 107.97 641.767 109.624 639.663 110.826C637.633 112.104 635.341 112.743 632.786 112.743H591.973Z" fill="#00A47B"/>
</svg>
